<svg width="326" height="48" viewBox="0 0 326 48" fill="none" xmlns="http://www.w3.org/2000/svg">
<path d="M65.872 35.168C63.9307 35.168 62.176 34.7387 60.608 33.88C59.0587 33.0213 57.836 31.836 56.94 30.324C56.0627 28.7933 55.624 27.0853 55.624 25.2C55.624 23.3147 56.0627 21.616 56.94 20.104C57.836 18.5733 59.068 17.3787 60.636 16.52C62.204 15.6613 63.9587 15.232 65.9 15.232C67.356 15.232 68.7 15.4747 69.932 15.96C71.164 16.4453 72.2093 17.1547 73.068 18.088L71.752 19.404C70.2213 17.8547 68.2893 17.08 65.956 17.08C64.4067 17.08 62.9973 17.4347 61.728 18.144C60.4587 18.8533 59.46 19.824 58.732 21.056C58.0227 22.288 57.668 23.6693 57.668 25.2C57.668 26.7307 58.0227 28.112 58.732 29.344C59.46 30.576 60.4587 31.5467 61.728 32.256C62.9973 32.9653 64.4067 33.32 65.956 33.32C68.308 33.32 70.24 32.536 71.752 30.968L73.068 32.284C72.2093 33.2173 71.1547 33.936 69.904 34.44C68.672 34.9253 67.328 35.168 65.872 35.168ZM82.2907 35.14C80.8721 35.14 79.5934 34.8227 78.4547 34.188C77.3161 33.5347 76.4201 32.6387 75.7667 31.5C75.1134 30.3613 74.7867 29.0733 74.7867 27.636C74.7867 26.1987 75.1134 24.9107 75.7667 23.772C76.4201 22.6333 77.3161 21.7467 78.4547 21.112C79.5934 20.4773 80.8721 20.16 82.2907 20.16C83.7094 20.16 84.9881 20.4773 86.1267 21.112C87.2654 21.7467 88.1521 22.6333 88.7867 23.772C89.4401 24.9107 89.7667 26.1987 89.7667 27.636C89.7667 29.0733 89.4401 30.3613 88.7867 31.5C88.1521 32.6387 87.2654 33.5347 86.1267 34.188C84.9881 34.8227 83.7094 35.14 82.2907 35.14ZM82.2907 33.376C83.3361 33.376 84.2694 33.1427 85.0907 32.676C85.9307 32.1907 86.5841 31.5093 87.0507 30.632C87.5174 29.7547 87.7507 28.756 87.7507 27.636C87.7507 26.516 87.5174 25.5173 87.0507 24.64C86.5841 23.7627 85.9307 23.0907 85.0907 22.624C84.2694 22.1387 83.3361 21.896 82.2907 21.896C81.2454 21.896 80.3027 22.1387 79.4627 22.624C78.6414 23.0907 77.9881 23.7627 77.5027 24.64C77.0361 25.5173 76.8027 26.516 76.8027 27.636C76.8027 28.756 77.0361 29.7547 77.5027 30.632C77.9881 31.5093 78.6414 32.1907 79.4627 32.676C80.3027 33.1427 81.2454 33.376 82.2907 33.376ZM101.074 27.328C102.119 27.5707 102.922 27.9907 103.482 28.588C104.061 29.1853 104.35 29.9133 104.35 30.772C104.35 31.6307 104.051 32.396 103.454 33.068C102.875 33.74 102.082 34.2627 101.074 34.636C100.066 34.9907 98.9555 35.168 97.7421 35.168C96.6781 35.168 95.6328 35.0187 94.6061 34.72C93.5795 34.4027 92.6835 33.9453 91.9181 33.348L92.5901 31.864C93.2621 32.368 94.0461 32.76 94.9421 33.04C95.8381 33.32 96.7435 33.46 97.6581 33.46C99.0208 33.46 100.131 33.208 100.99 32.704C101.867 32.1813 102.306 31.4813 102.306 30.604C102.306 29.82 101.951 29.2133 101.242 28.784C100.533 28.336 99.5621 28.112 98.3301 28.112H95.8101V26.656H98.2181C99.3195 26.656 100.206 26.4507 100.878 26.04C101.55 25.6107 101.886 25.0413 101.886 24.332C101.886 23.548 101.503 22.932 100.738 22.484C99.9915 22.036 99.0115 21.812 97.7981 21.812C96.2115 21.812 94.6435 22.2133 93.0941 23.016L92.5341 21.476C94.2888 20.5613 96.1088 20.104 97.9941 20.104C99.1141 20.104 100.122 20.272 101.018 20.608C101.933 20.9253 102.642 21.3827 103.146 21.98C103.669 22.5773 103.93 23.268 103.93 24.052C103.93 24.7987 103.669 25.4613 103.146 26.04C102.642 26.6187 101.951 27.048 101.074 27.328ZM118.243 27.384C120.24 27.8507 121.239 29.0547 121.239 30.996C121.239 32.284 120.763 33.2733 119.811 33.964C118.859 34.6547 117.44 35 115.555 35H108.863V20.272H115.359C117.039 20.272 118.355 20.5987 119.307 21.252C120.259 21.9053 120.735 22.8387 120.735 24.052C120.735 24.8547 120.511 25.5453 120.063 26.124C119.634 26.684 119.027 27.104 118.243 27.384ZM110.795 26.824H115.219C116.358 26.824 117.226 26.6093 117.823 26.18C118.439 25.7507 118.747 25.1253 118.747 24.304C118.747 23.4827 118.439 22.8667 117.823 22.456C117.226 22.0453 116.358 21.84 115.219 21.84H110.795V26.824ZM115.471 33.432C116.74 33.432 117.692 33.2267 118.327 32.816C118.962 32.4053 119.279 31.7613 119.279 30.884C119.279 30.0067 118.99 29.3627 118.411 28.952C117.832 28.5227 116.918 28.308 115.667 28.308H110.795V33.432H115.471ZM138.778 28.252H126.458C126.57 29.7827 127.158 31.024 128.222 31.976C129.286 32.9093 130.63 33.376 132.254 33.376C133.169 33.376 134.009 33.2173 134.774 32.9C135.54 32.564 136.202 32.0787 136.762 31.444L137.882 32.732C137.229 33.516 136.408 34.1133 135.418 34.524C134.448 34.9347 133.374 35.14 132.198 35.14C130.686 35.14 129.342 34.8227 128.166 34.188C127.009 33.5347 126.104 32.6387 125.45 31.5C124.797 30.3613 124.47 29.0733 124.47 27.636C124.47 26.1987 124.778 24.9107 125.394 23.772C126.029 22.6333 126.888 21.7467 127.97 21.112C129.072 20.4773 130.304 20.16 131.666 20.16C133.029 20.16 134.252 20.4773 135.334 21.112C136.417 21.7467 137.266 22.6333 137.882 23.772C138.498 24.892 138.806 26.18 138.806 27.636L138.778 28.252ZM131.666 21.868C130.248 21.868 129.053 22.3253 128.082 23.24C127.13 24.136 126.589 25.312 126.458 26.768H136.902C136.772 25.312 136.221 24.136 135.25 23.24C134.298 22.3253 133.104 21.868 131.666 21.868ZM149.965 27.328C151.01 27.5707 151.813 27.9907 152.373 28.588C152.951 29.1853 153.241 29.9133 153.241 30.772C153.241 31.6307 152.942 32.396 152.345 33.068C151.766 33.74 150.973 34.2627 149.965 34.636C148.957 34.9907 147.846 35.168 146.633 35.168C145.569 35.168 144.523 35.0187 143.497 34.72C142.47 34.4027 141.574 33.9453 140.809 33.348L141.481 31.864C142.153 32.368 142.937 32.76 143.833 33.04C144.729 33.32 145.634 33.46 146.549 33.46C147.911 33.46 149.022 33.208 149.881 32.704C150.758 32.1813 151.197 31.4813 151.197 30.604C151.197 29.82 150.842 29.2133 150.133 28.784C149.423 28.336 148.453 28.112 147.221 28.112H144.701V26.656H147.109C148.21 26.656 149.097 26.4507 149.769 26.04C150.441 25.6107 150.777 25.0413 150.777 24.332C150.777 23.548 150.394 22.932 149.629 22.484C148.882 22.036 147.902 21.812 146.689 21.812C145.102 21.812 143.534 22.2133 141.985 23.016L141.425 21.476C143.179 20.5613 144.999 20.104 146.885 20.104C148.005 20.104 149.013 20.272 149.909 20.608C150.823 20.9253 151.533 21.3827 152.037 21.98C152.559 22.5773 152.821 23.268 152.821 24.052C152.821 24.7987 152.559 25.4613 152.037 26.04C151.533 26.6187 150.842 27.048 149.965 27.328ZM172.118 33.264V38.556H170.242V35H157.054V38.556H155.178V33.264H156.018C157.007 33.208 157.679 32.48 158.034 31.08C158.388 29.68 158.631 27.72 158.762 25.2L158.958 20.272H169.822V33.264H172.118ZM160.582 25.312C160.488 27.4027 160.311 29.1293 160.05 30.492C159.788 31.836 159.322 32.76 158.65 33.264H167.834V22.036H160.75L160.582 25.312ZM175.992 20.272H177.98V31.976L187.808 20.272H189.572V35H187.584V23.296L177.784 35H175.992V20.272ZM208.149 28.252H195.829C195.941 29.7827 196.529 31.024 197.593 31.976C198.657 32.9093 200.001 33.376 201.625 33.376C202.54 33.376 203.38 33.2173 204.145 32.9C204.911 32.564 205.573 32.0787 206.133 31.444L207.253 32.732C206.6 33.516 205.779 34.1133 204.789 34.524C203.819 34.9347 202.745 35.14 201.569 35.14C200.057 35.14 198.713 34.8227 197.537 34.188C196.38 33.5347 195.475 32.6387 194.821 31.5C194.168 30.3613 193.841 29.0733 193.841 27.636C193.841 26.1987 194.149 24.9107 194.765 23.772C195.4 22.6333 196.259 21.7467 197.341 21.112C198.443 20.4773 199.675 20.16 201.037 20.16C202.4 20.16 203.623 20.4773 204.705 21.112C205.788 21.7467 206.637 22.6333 207.253 23.772C207.869 24.892 208.177 26.18 208.177 27.636L208.149 28.252ZM201.037 21.868C199.619 21.868 198.424 22.3253 197.453 23.24C196.501 24.136 195.96 25.312 195.829 26.768H206.273C206.143 25.312 205.592 24.136 204.621 23.24C203.669 22.3253 202.475 21.868 201.037 21.868ZM240.738 15.4V35H238.75V19.32L231.05 32.508H230.07L222.37 19.404V35H220.382V15.4H222.09L230.602 29.932L239.03 15.4H240.738ZM251.935 20.16C253.858 20.16 255.332 20.6453 256.359 21.616C257.386 22.568 257.899 23.9867 257.899 25.872V35H255.995V32.704C255.547 33.4693 254.884 34.0667 254.007 34.496C253.148 34.9253 252.122 35.14 250.927 35.14C249.284 35.14 247.978 34.748 247.007 33.964C246.036 33.18 245.551 32.144 245.551 30.856C245.551 29.6053 245.999 28.5973 246.895 27.832C247.81 27.0667 249.256 26.684 251.235 26.684H255.911V25.788C255.911 24.5187 255.556 23.5573 254.847 22.904C254.138 22.232 253.102 21.896 251.739 21.896C250.806 21.896 249.91 22.0547 249.051 22.372C248.192 22.6707 247.455 23.0907 246.839 23.632L245.943 22.148C246.69 21.5133 247.586 21.028 248.631 20.692C249.676 20.3373 250.778 20.16 251.935 20.16ZM251.235 33.572C252.355 33.572 253.316 33.32 254.119 32.816C254.922 32.2933 255.519 31.5467 255.911 30.576V28.168H251.291C248.771 28.168 247.511 29.0453 247.511 30.8C247.511 31.6587 247.838 32.34 248.491 32.844C249.144 33.3293 250.059 33.572 251.235 33.572ZM270.779 20.16C272.161 20.16 273.411 20.4773 274.531 21.112C275.651 21.728 276.529 22.6053 277.163 23.744C277.798 24.8827 278.115 26.18 278.115 27.636C278.115 29.1107 277.798 30.4173 277.163 31.556C276.529 32.6947 275.651 33.5813 274.531 34.216C273.43 34.832 272.179 35.14 270.779 35.14C269.585 35.14 268.502 34.8973 267.531 34.412C266.579 33.908 265.795 33.18 265.179 32.228V40.432H263.191V20.272H265.095V23.184C265.693 22.2133 266.477 21.4667 267.447 20.944C268.437 20.4213 269.547 20.16 270.779 20.16ZM270.639 33.376C271.666 33.376 272.599 33.1427 273.439 32.676C274.279 32.1907 274.933 31.5093 275.399 30.632C275.885 29.7547 276.127 28.756 276.127 27.636C276.127 26.516 275.885 25.5267 275.399 24.668C274.933 23.7907 274.279 23.1093 273.439 22.624C272.599 22.1387 271.666 21.896 270.639 21.896C269.594 21.896 268.651 22.1387 267.811 22.624C266.99 23.1093 266.337 23.7907 265.851 24.668C265.385 25.5267 265.151 26.516 265.151 27.636C265.151 28.756 265.385 29.7547 265.851 30.632C266.337 31.5093 266.99 32.1907 267.811 32.676C268.651 33.1427 269.594 33.376 270.639 33.376ZM287.735 28.448H284.375V35H282.387V20.272H284.375V26.74H287.763L292.943 20.272H295.099L289.303 27.412L295.519 35H293.167L287.735 28.448ZM311.017 28.252H298.697C298.809 29.7827 299.397 31.024 300.461 31.976C301.525 32.9093 302.869 33.376 304.493 33.376C305.407 33.376 306.247 33.2173 307.013 32.9C307.778 32.564 308.441 32.0787 309.001 31.444L310.121 32.732C309.467 33.516 308.646 34.1133 307.657 34.524C306.686 34.9347 305.613 35.14 304.437 35.14C302.925 35.14 301.581 34.8227 300.405 34.188C299.247 33.5347 298.342 32.6387 297.689 31.5C297.035 30.3613 296.709 29.0733 296.709 27.636C296.709 26.1987 297.017 24.9107 297.633 23.772C298.267 22.6333 299.126 21.7467 300.209 21.112C301.31 20.4773 302.542 20.16 303.905 20.16C305.267 20.16 306.49 20.4773 307.573 21.112C308.655 21.7467 309.505 22.6333 310.121 23.772C310.737 24.892 311.045 26.18 311.045 27.636L311.017 28.252ZM303.905 21.868C302.486 21.868 301.291 22.3253 300.321 23.24C299.369 24.136 298.827 25.312 298.697 26.768H309.141C309.01 25.312 308.459 24.136 307.489 23.24C306.537 22.3253 305.342 21.868 303.905 21.868ZM325.149 22.036H319.577V35H317.589V22.036H312.017V20.272H325.149V22.036Z" fill="white"/>
<g clip-path="url(#clip0_4180_2)">
<path d="M40.9706 40.9706C50.3432 31.598 50.3432 16.402 40.9706 7.02944C31.5981 -2.34315 16.4021 -2.34314 7.02952 7.02944C-2.34306 16.402 -2.34306 31.598 7.02952 40.9706C16.4021 50.3431 31.5981 50.3431 40.9706 40.9706Z" fill="white"/>
<path d="M31.7148 9.38323C31.9301 9.52211 32.0579 9.60544 32.287 9.75126C32.1995 9.36101 32.0857 9.25268 31.7148 9.38323Z" fill="#676666"/>
<path d="M30.8455 8.75967C30.9566 9.06659 31.2094 9.01798 31.4344 9.03743C31.458 8.9916 31.4816 8.94438 31.5038 8.89855L30.9483 8.55273L30.84 8.75828" fill="#676666"/>
<path d="M34.33 13.212C34.6077 13.3425 34.823 13.5231 35.0355 13.155L34.5244 12.4995C34.4424 12.8037 34.3855 12.9842 34.33 13.2134" fill="#676666"/>
<path d="M28.6595 7.18984C28.5762 7.11762 28.4929 7.05095 28.4082 6.99124L29.0678 6.7593C28.7609 6.48154 28.4845 6.28433 28.3846 6.97457C28.1464 6.7942 27.8481 6.71216 27.5513 6.74542C27.8221 7.32038 27.8221 7.32038 28.6623 7.18984" fill="#676666"/>
<path d="M35.9493 11.5386C35.9493 12.2205 36.3757 12.5621 36.9215 12.8163L35.9493 11.5386Z" fill="#676666"/>
<path d="M37.1729 13.2798L36.9313 12.8257C36.9646 12.9937 36.9965 13.1618 37.0285 13.3298L37.1729 13.2798Z" fill="#676666"/>
<path d="M30.1372 7.09698C29.9954 7.02725 29.8487 6.96784 29.6983 6.91921C29.6844 7.21225 29.6733 7.43863 29.6594 7.73305C29.5879 7.65265 29.4999 7.58859 29.4014 7.54521C29.3029 7.50184 29.1962 7.48017 29.0886 7.48168C29.1053 7.5539 29.1206 7.62056 29.1358 7.67611L28.322 7.49973C27.9151 7.39002 27.5068 7.27891 27.0943 7.20808C26.8596 7.16781 26.6249 7.13031 26.3888 7.0942L26.3791 7.08587H26.3638C25.8791 7.01226 25.3916 6.94699 24.9083 6.8831C24.9736 6.79422 24.9694 6.66506 24.825 6.50118C24.7049 6.52779 24.5798 6.52009 24.4639 6.47896C24.457 6.45257 24.4472 6.42341 24.4361 6.39146C24.6839 6.42013 24.9228 6.50057 25.1375 6.62756C25.1597 6.64423 25.2764 6.52201 25.4652 6.36785L23.6223 5.89844C23.6919 6.01479 23.785 6.11529 23.8958 6.19351C24.0065 6.27172 24.1324 6.3259 24.2653 6.35258L24.2264 6.39563C23.9945 6.30814 23.757 6.23036 23.5153 6.39563L23.6945 6.72894C23.3778 6.67813 23.0568 6.65813 22.7362 6.66923C22.3196 6.69422 21.9168 6.83311 21.5085 6.93032C21.6099 6.99837 21.7154 7.09004 21.8182 7.17059L21.5668 7.20392C21.0835 7.25669 20.5058 7.3428 20.0392 7.10948C18.0143 7.59695 16.4727 8.3844 14.5603 9.58572C12.6479 10.787 10.5966 12.9925 9.68003 14.4313C8.76342 15.8701 8.07596 17.2575 7.6607 19.6199C6.45244 29.5679 16.9018 35.0356 23.189 33.008C21.6917 32.7699 20.2827 32.1449 19.1012 31.1949C17.9197 30.2449 17.0068 29.0028 16.4529 27.5916C15.899 26.1804 15.7232 24.649 15.943 23.149C16.1627 21.6489 16.7705 20.2323 17.706 19.0393C18.2356 18.3133 18.8835 17.6814 19.6225 17.17C20.7761 16.4075 22.0569 15.8577 23.4042 15.5465L23.5431 15.7645C23.682 15.7493 23.832 15.7354 23.9778 15.7256C24.0593 15.6146 24.1705 15.5289 24.2986 15.4784C24.3628 15.453 24.4176 15.4084 24.4556 15.3507C25.2346 15.2409 26.0246 15.2339 26.8054 15.3298C26.8235 15.3507 26.8721 15.384 26.8999 15.409C26.9151 15.3896 26.9318 15.3701 26.9471 15.3493C27.218 15.3899 27.4865 15.4455 27.7512 15.5159L27.5207 15.4048C28.6709 15.6325 29.778 16.0402 30.801 16.6131C31.0177 16.7353 31.2566 16.8186 31.4843 16.92C31.4843 16.8686 31.4843 16.8186 31.4774 16.7673C31.5357 16.7381 31.594 16.7048 31.6524 16.67C31.8458 16.8208 32.048 16.9599 32.2579 17.0867C33.0912 17.5769 32.7981 17.2256 33.5078 17.92C33.6564 18.0658 33.9411 18.0588 34.1675 18.1283C33.7745 17.7519 34.5258 18.1894 34.1064 17.8505C33.5509 17.3964 32.9842 16.9631 32.4134 16.5325C32.5259 16.5631 32.6398 16.6034 32.7509 16.6298C32.3523 16.3145 32.1176 15.777 31.5635 15.7534C31.4774 15.7534 31.3913 15.634 31.3038 15.5701C31.1302 15.4423 30.9496 15.3215 30.783 15.1826C30.2969 14.7799 29.6886 14.709 29.1497 14.4466C28.7192 14.2572 28.2749 14.1007 27.8206 13.9785C27.3923 13.844 26.9545 13.7414 26.511 13.6716L26.536 13.6466L24.6653 13.3327C24.7073 13.3929 24.7563 13.4479 24.8111 13.4966H24.8C24.5986 13.4841 24.3958 13.4688 24.1945 13.4577C24.0973 13.1494 23.8223 13.18 23.5834 13.1605C23.6206 13.2557 23.6637 13.3485 23.7126 13.4383C23.5987 13.4383 23.4848 13.4383 23.3709 13.4383C23.4382 13.3536 23.5003 13.2651 23.557 13.173C23.3292 13.3119 22.9001 12.9703 22.8084 13.4952H22.782C22.5515 13.5203 22.3194 13.5282 22.0876 13.5188C22.0876 13.4702 22.0793 13.423 22.0765 13.3799C22.832 13.1577 23.6278 13.1314 24.4125 13.0591C24.8318 13.0168 25.2543 13.0168 25.6735 13.0591C25.9083 13.0855 26.1138 13.1411 26.336 13.0147C26.6665 12.8244 26.9749 12.8883 27.1776 13.305C27.4887 13.1216 27.7332 13.0272 28.0831 13.2563C28.3178 13.4091 28.6095 13.5008 28.8692 13.6591C29.1071 13.7983 29.3769 13.8738 29.6525 13.8785C29.7434 13.8765 29.8338 13.8938 29.9175 13.9293C30.0013 13.9647 30.0766 14.0174 30.1386 14.0841C30.3584 14.27 30.6185 14.4022 30.8982 14.4702C31.051 14.5091 31.2066 14.5368 31.3607 14.5604C31.3454 14.5813 31.326 14.6049 31.3052 14.634H30.851C30.8413 14.6688 30.8316 14.7035 30.8205 14.7396L31.5218 15.1562L32.0773 14.6577H32.1135C32.1135 14.8438 32.1135 14.9632 32.1135 15.0743C32.2181 15.1127 32.3295 15.1289 32.4408 15.1217C32.552 15.1145 32.6604 15.0842 32.7593 15.0326C32.8023 15.1368 32.8198 15.2498 32.8104 15.3621C32.8009 15.4744 32.7648 15.5829 32.7051 15.6784L33.1689 15.4298L33.7009 15.734L33.812 15.6382C33.7481 15.4993 33.7175 15.3229 33.6148 15.2437C33.3689 15.0535 33.1134 14.8771 32.8565 14.7021C32.6231 14.4924 32.4398 14.216 32.1121 14.1757C32.0278 14.1103 31.9341 14.0579 31.8343 14.0202C31.7885 13.9521 31.7413 13.8744 31.6954 13.8174L31.7746 13.6785C31.8989 13.7097 32.0188 13.7563 32.1315 13.8174C32.3065 13.941 32.4468 14.1271 32.6287 14.2341C33.2301 14.584 33.8439 14.9062 34.4508 15.2437C34.8577 15.4687 34.8563 15.4729 35.2036 15.0757L34.2314 14.2424L34.3703 13.9466L34.7383 13.991C34.58 13.6716 34.5175 13.3661 34.3397 13.2327C34.1619 13.0994 33.8786 13.1591 33.6134 13.13C33.5592 13.0036 33.4912 12.8439 33.3634 12.5481C33.1495 13.0661 32.8884 12.5647 32.6023 12.6605C32.5912 12.7453 32.5787 12.8314 32.5662 12.9175C32.5162 12.9633 32.4648 13.0175 32.4079 13.0716C32.2748 13.0548 32.1399 13.0842 32.026 13.155C31.8607 13.0806 31.6903 13.018 31.5163 12.9675C30.9816 12.8175 30.7413 12.4619 30.6719 11.9078C30.8635 11.787 31.0371 11.7425 31.2385 11.9356C31.3737 12.0797 31.5343 12.1979 31.7121 12.2842C31.9161 12.3811 32.1428 12.4205 32.3676 12.3981C32.6968 12.3328 33.0065 12.1731 33.38 12.0314C33.3412 11.9286 33.2884 11.6148 33.2037 11.6023C32.7537 11.5231 32.7356 11.0842 32.4718 10.8537L33.2634 10.2468L32.5245 9.92737C32.5898 10.101 32.6259 10.2051 32.6634 10.3107L32.1676 10.7412L31.6482 10.4301C31.8343 10.2051 32.2357 10.1996 32.0982 9.78016C31.7968 9.64128 31.6982 9.90515 31.5788 10.0829C31.4288 10.3107 31.2649 10.4023 30.9955 10.2662C30.8469 10.2026 30.6937 10.1506 30.5372 10.1107C30.4636 9.40379 31.2218 9.8746 31.3704 9.45795C31.0302 9.28713 30.6858 9.16353 30.3913 8.95798C29.6122 8.41357 28.7734 8.21914 27.8526 8.2233C27.8533 8.22884 27.8533 8.23443 27.8526 8.23997L27.0318 7.59834C27.2998 7.63306 27.5679 7.6775 27.8331 7.73722C27.8151 7.93721 27.8887 8.01498 28.0804 8.01498C28.3984 8.01498 28.7178 8.03581 29.0372 8.03581C29.285 8.2236 29.5944 8.31134 29.9039 8.28163C29.9316 8.2108 29.9566 8.14275 29.983 8.07887L30.0386 8.07053L29.9969 8.04137L30.0858 7.81222C30.9052 7.9511 31.5232 8.50662 32.151 8.94687C32.7454 9.36351 33.3148 9.78016 33.9814 10.0579C34.1106 10.1121 34.3203 10.2343 34.3175 10.3121C34.2869 11.1037 34.9605 11.4564 35.3272 11.9939C35.4495 12.1266 35.5897 12.2416 35.7438 12.3356L35.8674 12.1967C35.5521 11.8953 35.6174 11.2884 35.0147 11.2912C34.9702 11.0315 34.9911 10.7926 34.8911 10.6259C34.3605 9.73988 33.5273 9.18158 32.6995 8.63995C31.8718 8.09831 30.9969 7.60806 30.1372 7.09698Z" fill="#676666"/>
<path d="M32.8885 13.3827C32.7746 13.2911 32.6843 13.2203 32.6107 13.1675H32.976C32.9775 13.2463 32.9481 13.3226 32.894 13.38" fill="#676666"/>
<path d="M35.1369 12.5247C35.0721 12.3897 34.993 12.2622 34.9008 12.1442C34.6925 11.8178 34.6536 11.772 34.4508 11.7386C34.4147 11.715 34.3758 11.6928 34.337 11.6706C34.3133 11.4664 34.2786 11.2623 33.9453 11.1831C34.0842 11.3734 34.1897 11.5123 34.287 11.6428C34.224 11.6095 34.1573 11.5775 34.087 11.547C34.2953 12.1719 34.6828 12.3803 35.1369 12.5191" fill="#676666"/>
<path d="M35.6286 12.9704L35.1494 12.5537C35.1897 12.8106 35.2619 13.037 35.6286 12.9704Z" fill="#676666"/>
<path d="M29.915 16.8617C29.6192 16.1534 29.1942 15.9562 28.5679 16.3423C29.2248 15.9715 29.3303 17.0367 29.915 16.8617Z" fill="#676666"/>
<path d="M30.8232 17.1368L31.6079 17.5534C31.4329 16.9173 31.4135 16.9062 30.8232 17.1368Z" fill="#676666"/>
<path d="M33.4703 16.5532C33.3634 16.0754 33.0537 15.8588 32.6968 15.6963C32.8565 16.0504 33.0218 16.4004 33.4703 16.5532Z" fill="#676666"/>
<path d="M26.4416 15.7007C26.4485 15.9784 26.4555 16.1979 26.4638 16.4937L25.0583 16.3006C25.35 16.3895 25.6139 16.5867 25.8791 16.7395C25.8708 16.7909 25.8639 16.8506 25.8597 16.9187L26.0569 16.8298C26.261 16.9329 26.4939 16.9642 26.718 16.9187C26.7638 16.7687 26.7999 16.6409 26.8485 16.4798C27.5985 16.5437 28.1943 17.0062 28.7929 17.3534C29.3581 17.6811 29.9039 18.0242 30.5233 18.2241C30.6427 18.2616 30.8413 18.363 30.8441 18.4283C30.8719 19.1477 31.5038 19.4171 31.8732 19.8768C31.9912 19.9872 32.124 20.0807 32.2677 20.1546L32.369 20.0254C32.0635 19.7768 32.0802 19.2213 31.5358 19.2699C31.4774 19.038 31.4788 18.8199 31.376 18.6755C30.8358 17.9131 30.0456 17.47 29.2609 17.0409C28.4762 16.6117 27.6554 16.227 26.8485 15.8271C26.716 15.7754 26.58 15.7332 26.4416 15.7007Z" fill="#676666"/>
<path d="M33.5106 19.1769C33.2673 18.7463 32.8658 18.4275 32.3912 18.2881C32.6468 18.895 33.0481 19.0783 33.5106 19.1769Z" fill="#676666"/>
<path d="M26.3874 34.1234C18.9629 37.808 7.34688 34.5831 6.6247 23.7227C6.6122 23.9157 6.60248 24.1101 6.59692 24.3032C6.59692 24.3393 6.59692 24.3754 6.59692 24.4115C6.59651 27.9265 7.62767 31.3643 9.56258 34.2987C11.4975 37.2332 14.2511 39.5353 17.482 40.9196C20.7128 42.3039 24.2789 42.7096 27.7382 42.0864C31.1975 41.4631 34.3978 39.8384 36.9424 37.4135L37.2549 37.1094L30.7122 30.5653C29.7872 31.8736 28.6665 32.9943 26.3916 34.1234" fill="#676666"/>
</g>
<defs>
<clipPath id="clip0_4180_2">
<rect width="48" height="48" fill="white"/>
</clipPath>
</defs>
</svg>
